<?xml version="1.0" standalone="no"?>
<!DOCTYPE svg PUBLIC "-//W3C//DTD SVG 20010904//EN"
 "http://www.w3.org/TR/2001/REC-SVG-20010904/DTD/svg10.dtd">
<svg version="1.0" xmlns="http://www.w3.org/2000/svg"
 width="465.000000pt" height="307.000000pt" viewBox="0 0 465.000000 307.000000"
 preserveAspectRatio="xMidYMid meet">

<g transform="translate(0.000000,307.000000) scale(0.100000,-0.100000)"
fill="#000000" stroke="none">
<path d="M80 3015 l44 -45 1033 0 1033 0 0 -890 0 -890 45 0 45 0 0 935 0 935
-1122 0 -1122 0 44 -45z"/>
<path d="M2380 2075 l0 -985 -582 0 -582 0 39 -40 39 -40 583 0 583 0 0 980 0
980 1028 0 1028 0 44 45 44 45 -1112 0 -1112 0 0 -985z"/>
<path d="M4592 2977 l-42 -43 0 -1462 0 -1462 45 0 45 0 0 1505 c0 828 -1
1505 -3 1505 -2 0 -22 -19 -45 -43z"/>
<path d="M10 1511 l0 -1501 45 0 45 0 0 1463 0 1463 -27 25 c-16 14 -36 31
-45 38 -17 13 -18 -60 -18 -1488z"/>
<path d="M190 2912 c0 -5 18 -23 39 -40 l40 -32 890 0 891 0 0 -825 0 -825 40
0 40 0 0 858 0 859 -572 6 c-780 9 -1368 9 -1368 -1z"/>
<path d="M2518 1939 l-3 -984 -580 -3 -579 -2 44 -45 44 -45 583 0 583 0 0
990 0 990 888 0 888 0 34 35 34 35 -370 0 c-203 0 -638 3 -966 7 l-598 6 -2
-984z"/>
<path d="M160 1442 l0 -1432 45 0 45 0 0 1388 0 1388 -45 44 -45 44 0 -1432z"/>
<path d="M4447 2832 l-37 -38 0 -1392 0 -1392 40 0 40 0 0 1430 c0 787 -1
1430 -3 1430 -2 0 -20 -17 -40 -38z"/>
<path d="M375 2729 l50 -51 740 4 740 3 3 -747 2 -748 45 0 45 0 0 795 0 795
-837 0 -837 0 49 -51z"/>
<path d="M2670 1800 l0 -980 -387 0 c-214 0 -431 -2 -483 -4 -52 -2 -142 -4
-200 -5 l-104 -1 44 -45 44 -45 578 0 578 0 2 983 3 982 745 3 746 2 44 45 44
45 -827 0 -827 0 0 -980z"/>
<path d="M300 1376 l0 -1366 40 0 40 0 0 1323 -1 1322 -39 44 -40 44 0 -1367z"/>
<path d="M4313 2698 l-41 -43 -5 -1323 -6 -1322 49 0 50 0 0 1365 c0 751 -1
1365 -3 1365 -2 0 -21 -19 -44 -42z"/>
<path d="M515 2590 l39 -40 603 0 603 0 0 -680 0 -680 45 0 45 0 0 720 0 720
-687 0 -687 0 39 -40z"/>
<path d="M2800 1650 l0 -980 -575 0 c-316 0 -575 -4 -575 -8 0 -4 17 -24 38
-44 l37 -37 583 -3 582 -3 0 988 0 987 600 0 601 0 42 40 42 39 -687 1 -688 0
0 -980z"/>
<path d="M440 1302 l0 -1292 45 0 45 0 0 1248 0 1248 -45 44 -45 44 0 -1292z"/>
<path d="M4167 2559 l-37 -30 0 -1260 0 -1259 40 0 40 0 0 1290 c0 710 -1
1290 -3 1290 -1 0 -19 -14 -40 -31z"/>
<path d="M2950 1515 l0 -985 -581 0 -582 0 39 -44 39 -44 583 -1 582 -1 0 980
0 980 453 0 453 0 49 50 49 50 -542 0 -542 0 0 -985z"/>
<path d="M660 2445 l44 -45 458 0 458 0 0 -605 0 -605 45 0 45 0 0 650 0 650
-547 0 -547 0 44 -45z"/>
<path d="M4022 2417 l-42 -43 0 -1182 0 -1182 45 0 45 0 0 1225 c0 674 -1
1225 -3 1225 -2 0 -22 -19 -45 -43z"/>
<path d="M580 1232 l0 -1222 45 0 45 0 0 1178 0 1178 -45 44 -45 44 0 -1222z"/>
<path d="M795 2310 l39 -40 318 0 318 0 0 -540 0 -540 45 0 45 0 0 580 0 580
-402 0 -402 0 39 -40z"/>
<path d="M3090 1727 c0 -343 -3 -786 -7 -985 l-6 -362 -571 0 -570 0 44 -45
44 -45 578 0 578 0 0 990 0 990 313 0 313 0 39 40 39 40 -397 0 -397 0 0 -623z"/>
<path d="M3877 2272 l-37 -38 0 -1112 0 -1112 40 0 40 0 0 1150 c0 633 -1
1150 -3 1150 -2 0 -20 -17 -40 -38z"/>
<path d="M730 1157 l0 -1147 45 0 45 0 0 1103 0 1103 -45 44 -45 44 0 -1147z"/>
<path d="M940 2165 l44 -45 175 -2 176 -3 3 -462 2 -463 45 0 45 0 0 510 0
510 -267 0 -267 0 44 -45z"/>
<path d="M3230 1230 l0 -980 -582 0 -582 0 44 -45 44 -45 578 0 578 0 0 980 0
980 173 0 173 0 44 45 44 45 -257 0 -257 0 0 -980z"/>
<path d="M3742 2137 l-42 -43 0 -1042 0 -1042 45 0 45 0 0 1085 c0 597 -1
1085 -3 1085 -2 0 -22 -19 -45 -43z"/>
<path d="M870 1092 l0 -1082 40 0 40 0 0 1043 0 1043 -40 39 -40 39 0 -1082z"/>
<path d="M1040 2072 c0 -5 20 -28 45 -51 32 -29 53 -41 75 -41 l30 0 0 -395 0
-395 45 0 45 0 0 439 0 438 -47 6 c-81 9 -193 9 -193 -1z"/>
<path d="M3370 1090 l0 -990 -577 0 -577 0 44 -45 44 -45 578 0 578 0 2 988 3
987 30 3 c28 3 105 65 105 84 0 4 -52 8 -115 8 l-115 0 0 -990z"/>
<path d="M1010 1022 l0 -1012 45 0 45 0 0 968 0 968 -45 44 -45 44 0 -1012z"/>
<path d="M3592 1987 l-32 -33 0 -972 0 -972 35 0 35 0 0 1005 c0 553 -1 1005
-3 1005 -2 0 -17 -15 -35 -33z"/>
</g>
</svg>
